<?xml version="1.0" encoding="us-ascii" standalone="no"?><svg xmlns="http://www.w3.org/2000/svg" xmlns:xlink="http://www.w3.org/1999/xlink" contentStyleType="text/css" height="929px" preserveAspectRatio="none" style="width:2247px;height:929px;background:#FFFFFF;" version="1.1" viewBox="0 0 2247 929" width="2247px" zoomAndPan="magnify"><defs><filter height="300%" id="fh2kmlhksmugl" width="300%" x="-1" y="-1"><feGaussianBlur result="blurOut" stdDeviation="2.0"/><feColorMatrix in="blurOut" result="blurOut2" type="matrix" values="0 0 0 0 0 0 0 0 0 0 0 0 0 0 0 0 0 0 .4 0"/><feOffset dx="4.0" dy="4.0" in="blurOut2" result="blurOut3"/><feBlend in="SourceGraphic" in2="blurOut3" mode="normal"/></filter></defs><g><!--cluster std--><g id="cluster_std"><polygon fill="none" filter="url(#fh2kmlhksmugl)" points="153.86,6,181.86,6,188.86,28.2969,285.86,28.2969,285.86,105,153.86,105,153.86,6" style="stroke:#000000;stroke-width:1.5;"/><line style="stroke:#000000;stroke-width:1.5;" x1="153.86" x2="188.86" y1="28.2969" y2="28.2969"/><text fill="#000000" font-family="sans-serif" font-size="14" lengthAdjust="spacing" textLength="22" x="157.86" y="20.9951">std</text></g><!--cluster core--><g id="cluster_core"><polygon fill="none" filter="url(#fh2kmlhksmugl)" points="132.86,349.78,169.86,349.78,176.86,372.0769,1842.86,372.0769,1842.86,660.64,132.86,660.64,132.86,349.78" style="stroke:#000000;stroke-width:1.5;"/><line style="stroke:#000000;stroke-width:1.5;" x1="132.86" x2="176.86" y1="372.0769" y2="372.0769"/><text fill="#000000" font-family="sans-serif" font-size="14" lengthAdjust="spacing" textLength="31" x="136.86" y="364.7751">core</text></g><!--cluster graphical--><g id="cluster_graphical"><polygon fill="none" filter="url(#fh2kmlhksmugl)" points="60.86,129,128.86,129,135.86,151.2969,1141.86,151.2969,1141.86,325.78,60.86,325.78,60.86,129" style="stroke:#000000;stroke-width:1.5;"/><line style="stroke:#000000;stroke-width:1.5;" x1="60.86" x2="135.86" y1="151.2969" y2="151.2969"/><text fill="#000000" font-family="sans-serif" font-size="14" lengthAdjust="spacing" textLength="62" x="64.86" y="143.9951">graphical</text></g><!--cluster game--><g id="cluster_game"><polygon fill="none" filter="url(#fh2kmlhksmugl)" points="1165.86,129,1210.86,129,1217.86,151.2969,2230.86,151.2969,2230.86,325.78,1165.86,325.78,1165.86,129" style="stroke:#000000;stroke-width:1.5;"/><line style="stroke:#000000;stroke-width:1.5;" x1="1165.86" x2="1217.86" y1="151.2969" y2="151.2969"/><text fill="#000000" font-family="sans-serif" font-size="14" lengthAdjust="spacing" textLength="39" x="1169.86" y="143.9951">game</text></g><!--class exception--><g id="elem_exception"><rect fill="#FEFECE" filter="url(#fh2kmlhksmugl)" height="48" id="exception" style="stroke:#A80036;stroke-width:1.0;" width="100" x="169.86" y="41"/><ellipse cx="184.86" cy="57" fill="#ADD1B2" rx="11" ry="11" style="stroke:#A80036;stroke-width:1.0;"/><path d="M187.8288,62.6406 Q187.2506,62.9375 186.61,63.0781 Q185.9694,63.2344 185.2663,63.2344 Q182.7663,63.2344 181.4381,61.5938 Q180.1256,59.9375 180.1256,56.8125 Q180.1256,53.6875 181.4381,52.0313 Q182.7663,50.375 185.2663,50.375 Q185.9694,50.375 186.61,50.5313 Q187.2663,50.6875 187.8288,50.9844 L187.8288,53.7031 Q187.2038,53.125 186.61,52.8594 Q186.0163,52.5781 185.3913,52.5781 Q184.0475,52.5781 183.36,53.6563 Q182.6725,54.7188 182.6725,56.8125 Q182.6725,58.9063 183.36,59.9844 Q184.0475,61.0469 185.3913,61.0469 Q186.0163,61.0469 186.61,60.7813 Q187.2038,60.5 187.8288,59.9219 L187.8288,62.6406 Z " fill="#000000"/><text fill="#000000" font-family="sans-serif" font-size="14" lengthAdjust="spacing" textLength="68" x="198.86" y="61.8467">exception</text><line style="stroke:#A80036;stroke-width:1.0;" x1="170.86" x2="268.86" y1="73" y2="73"/><line style="stroke:#A80036;stroke-width:1.0;" x1="170.86" x2="268.86" y1="81" y2="81"/></g><!--class action--><g id="elem_action"><rect codeLine="7" fill="#FEFECE" filter="url(#fh2kmlhksmugl)" height="178.375" id="action" style="stroke:#A80036;stroke-width:1.0;" width="98" x="1728.86" y="425.52"/><ellipse cx="1754.66" cy="441.52" fill="#EB937F" rx="11" ry="11" style="stroke:#A80036;stroke-width:1.0;"/><path d="M1758.7694,447.52 L1751.0506,447.52 L1751.0506,435.1294 L1758.7694,435.1294 L1758.7694,437.2856 L1753.5038,437.2856 L1753.5038,439.9575 L1758.2694,439.9575 L1758.2694,442.1138 L1753.5038,442.1138 L1753.5038,445.3638 L1758.7694,445.3638 L1758.7694,447.52 Z " fill="#000000"/><text fill="#000000" font-family="sans-serif" font-size="14" lengthAdjust="spacing" textLength="42" x="1771.06" y="446.3667">action</text><line style="stroke:#A80036;stroke-width:1.0;" x1="1729.86" x2="1825.86" y1="457.52" y2="457.52"/><text fill="#000000" font-family="sans-serif" font-size="14" lengthAdjust="spacing" textLength="23" x="1734.86" y="474.5151">UP,</text><text fill="#000000" font-family="sans-serif" font-size="14" lengthAdjust="spacing" textLength="49" x="1734.86" y="490.812">DOWN,</text><text fill="#000000" font-family="sans-serif" font-size="14" lengthAdjust="spacing" textLength="37" x="1734.86" y="507.1089">LEFT,</text><text fill="#000000" font-family="sans-serif" font-size="14" lengthAdjust="spacing" textLength="47" x="1734.86" y="523.4057">RIGHT,</text><text fill="#000000" font-family="sans-serif" font-size="14" lengthAdjust="spacing" textLength="56" x="1734.86" y="539.7026">ACTION,</text><text fill="#000000" font-family="sans-serif" font-size="14" lengthAdjust="spacing" textLength="45" x="1734.86" y="555.9995">MENU,</text><text fill="#000000" font-family="sans-serif" font-size="14" lengthAdjust="spacing" textLength="37" x="1734.86" y="572.2964">QUIT,</text><text fill="#000000" font-family="sans-serif" font-size="14" lengthAdjust="spacing" textLength="86" x="1734.86" y="588.5932">CHANGE_LIB</text><line style="stroke:#A80036;stroke-width:1.0;" x1="1729.86" x2="1825.86" y1="595.895" y2="595.895"/></g><!--class ICoreModule--><g id="elem_ICoreModule"><rect codeLine="18" fill="#FEFECE" filter="url(#fh2kmlhksmugl)" height="113.1875" id="ICoreModule" style="stroke:#A80036;stroke-width:1.0;" width="242" x="640.86" y="458.12"/><ellipse cx="714.11" cy="474.12" fill="#A9DCDF" rx="11" ry="11" style="stroke:#A80036;stroke-width:1.0;"/><path d="M714.2194,469.4638 L713.0631,474.5419 L715.3912,474.5419 L714.2194,469.4638 Z M712.735,467.2294 L715.7194,467.2294 L719.0787,479.62 L716.6256,479.62 L715.86,476.5575 L712.5787,476.5575 L711.8287,479.62 L709.3912,479.62 L712.735,467.2294 Z " fill="#000000"/><text fill="#000000" font-family="sans-serif" font-size="14" font-style="italic" lengthAdjust="spacing" textLength="87" x="734.61" y="478.9667">ICoreModule</text><line style="stroke:#A80036;stroke-width:1.0;" x1="641.86" x2="881.86" y1="490.12" y2="490.12"/><text fill="#000000" font-family="sans-serif" font-size="14" lengthAdjust="spacing" textLength="124" x="660.86" y="507.1151">// Fait le framerate</text><polygon fill="none" points="651.86,515.0653,655.86,519.0653,651.86,523.0653,647.86,519.0653" style="stroke:#B38D22;stroke-width:1.0;"/><text fill="#000000" font-family="sans-serif" font-size="14" lengthAdjust="spacing" textLength="216" x="660.86" y="523.412">graphical.IGraphicLib *graphics;</text><polygon fill="none" points="651.86,531.3622,655.86,535.3622,651.86,539.3622,647.86,535.3622" style="stroke:#B38D22;stroke-width:1.0;"/><text fill="#000000" font-family="sans-serif" font-size="14" lengthAdjust="spacing" textLength="142" x="660.86" y="539.7089">game.IGame *game;</text><line style="stroke:#A80036;stroke-width:1.0;" x1="641.86" x2="881.86" y1="547.0106" y2="547.0106"/><ellipse cx="651.86" cy="560.6591" fill="#84BE84" rx="3" ry="3" style="stroke:#038048;stroke-width:1.0;"/><text fill="#000000" font-family="sans-serif" font-size="14" lengthAdjust="spacing" textLength="48" x="660.86" y="564.0057">main();</text></g><!--class AssetError--><g id="elem_AssetError"><rect codeLine="25" fill="#FEFECE" filter="url(#fh2kmlhksmugl)" height="96.8906" id="AssetError" style="stroke:#A80036;stroke-width:1.0;" width="261" x="149.36" y="466.27"/><ellipse cx="239.61" cy="482.27" fill="#ADD1B2" rx="11" ry="11" style="stroke:#A80036;stroke-width:1.0;"/><path d="M242.5788,487.9106 Q242.0006,488.2075 241.36,488.3481 Q240.7194,488.5044 240.0163,488.5044 Q237.5163,488.5044 236.1881,486.8638 Q234.8756,485.2075 234.8756,482.0825 Q234.8756,478.9575 236.1881,477.3013 Q237.5163,475.645 240.0163,475.645 Q240.7194,475.645 241.36,475.8013 Q242.0163,475.9575 242.5788,476.2544 L242.5788,478.9731 Q241.9538,478.395 241.36,478.1294 Q240.7663,477.8481 240.1413,477.8481 Q238.7975,477.8481 238.11,478.9263 Q237.4225,479.9888 237.4225,482.0825 Q237.4225,484.1763 238.11,485.2544 Q238.7975,486.3169 240.1413,486.3169 Q240.7663,486.3169 241.36,486.0513 Q241.9538,485.77 242.5788,485.1919 L242.5788,487.9106 Z " fill="#000000"/><text fill="#000000" font-family="sans-serif" font-size="14" lengthAdjust="spacing" textLength="72" x="260.11" y="487.1167">AssetError</text><line style="stroke:#A80036;stroke-width:1.0;" x1="150.36" x2="409.36" y1="498.27" y2="498.27"/><rect fill="none" height="6" style="stroke:#C82930;stroke-width:1.0;" width="6" x="157.36" y="508.9184"/><text fill="#000000" font-family="sans-serif" font-size="14" lengthAdjust="spacing" textLength="148" x="169.36" y="515.2651">const std::string _str;</text><line style="stroke:#A80036;stroke-width:1.0;" x1="150.36" x2="409.36" y1="522.5669" y2="522.5669"/><ellipse cx="160.36" cy="536.2153" fill="#84BE84" rx="3" ry="3" style="stroke:#038048;stroke-width:1.0;"/><text fill="#000000" font-family="sans-serif" font-size="14" lengthAdjust="spacing" textLength="235" x="169.36" y="539.562">AssetError(const std::string &amp;str);</text><ellipse cx="160.36" cy="552.5122" fill="#84BE84" rx="3" ry="3" style="stroke:#038048;stroke-width:1.0;"/><text fill="#000000" font-family="sans-serif" font-size="14" lengthAdjust="spacing" textLength="228" x="169.36" y="555.8589">const char *what() const throw();</text></g><!--class IAssetLoader::type--><g id="elem_IAssetLoader::type"><rect codeLine="31" fill="#FEFECE" filter="url(#fh2kmlhksmugl)" height="96.8906" id="IAssetLoader::type" style="stroke:#A80036;stroke-width:1.0;" width="161" x="445.36" y="466.27"/><ellipse cx="460.36" cy="482.27" fill="#EB937F" rx="11" ry="11" style="stroke:#A80036;stroke-width:1.0;"/><path d="M464.4694,488.27 L456.7506,488.27 L456.7506,475.8794 L464.4694,475.8794 L464.4694,478.0356 L459.2038,478.0356 L459.2038,480.7075 L463.9694,480.7075 L463.9694,482.8638 L459.2038,482.8638 L459.2038,486.1138 L464.4694,486.1138 L464.4694,488.27 Z " fill="#000000"/><text fill="#000000" font-family="sans-serif" font-size="14" lengthAdjust="spacing" textLength="129" x="474.36" y="487.1167">IAssetLoader::type</text><line style="stroke:#A80036;stroke-width:1.0;" x1="446.36" x2="605.36" y1="498.27" y2="498.27"/><text fill="#000000" font-family="sans-serif" font-size="14" lengthAdjust="spacing" textLength="66" x="451.36" y="515.2651">TEXTUAL,</text><text fill="#000000" font-family="sans-serif" font-size="14" lengthAdjust="spacing" textLength="80" x="451.36" y="531.562">SPRITE_2D,</text><text fill="#000000" font-family="sans-serif" font-size="14" lengthAdjust="spacing" textLength="76" x="451.36" y="547.8589">SPRITE_3D</text><line style="stroke:#A80036;stroke-width:1.0;" x1="446.36" x2="605.36" y1="555.1606" y2="555.1606"/></g><!--class IAssetLoader--><g id="elem_IAssetLoader"><rect codeLine="37" fill="#FEFECE" filter="url(#fh2kmlhksmugl)" height="259.8594" id="IAssetLoader" style="stroke:#A80036;stroke-width:1.0;" width="775" x="918.36" y="384.78"/><ellipse cx="1257.11" cy="400.78" fill="#B4A7E5" rx="11" ry="11" style="stroke:#A80036;stroke-width:1.0;"/><path d="M1253.0319,396.5456 L1253.0319,394.3894 L1260.4225,394.3894 L1260.4225,396.5456 L1257.9538,396.5456 L1257.9538,404.6238 L1260.4225,404.6238 L1260.4225,406.78 L1253.0319,406.78 L1253.0319,404.6238 L1255.5006,404.6238 L1255.5006,396.5456 L1253.0319,396.5456 Z " fill="#000000"/><text fill="#000000" font-family="sans-serif" font-size="14" font-style="italic" lengthAdjust="spacing" textLength="89" x="1277.61" y="405.6267">IAssetLoader</text><line style="stroke:#A80036;stroke-width:1.0;" x1="919.36" x2="1692.36" y1="416.78" y2="416.78"/><ellipse cx="929.36" cy="430.4284" fill="none" rx="3" ry="3" style="stroke:#038048;stroke-width:1.0;"/><text fill="#000000" font-family="sans-serif" font-size="14" lengthAdjust="spacing" textLength="74" x="938.36" y="433.7751">enum type</text><polygon fill="none" points="929.36,441.7253,933.36,445.7253,929.36,449.7253,925.36,445.7253" style="stroke:#B38D22;stroke-width:1.0;"/><text fill="#000000" font-family="sans-serif" font-size="14" lengthAdjust="spacing" textLength="119" x="938.36" y="450.072">std::string name;</text><polygon fill="none" points="929.36,458.0222,933.36,462.0222,929.36,466.0222,925.36,462.0222" style="stroke:#B38D22;stroke-width:1.0;"/><text fill="#000000" font-family="sans-serif" font-size="14" lengthAdjust="spacing" textLength="114" x="938.36" y="466.3689">std::string rules;</text><polygon fill="none" points="929.36,474.3191,933.36,478.3191,929.36,482.3191,925.36,478.3191" style="stroke:#B38D22;stroke-width:1.0;"/><text fill="#000000" font-family="sans-serif" font-size="14" lengthAdjust="spacing" textLength="354" x="938.36" y="482.6657">std::std::map&lt;std::string, std::size_t&gt; high_score;</text><polygon fill="none" points="929.36,490.6159,933.36,494.6159,929.36,498.6159,925.36,494.6159" style="stroke:#B38D22;stroke-width:1.0;"/><text fill="#000000" font-family="sans-serif" font-size="14" lengthAdjust="spacing" textLength="254" x="938.36" y="498.9626">std::vector&lt;std::vector&lt;int&gt;&gt; map;</text><polygon fill="none" points="929.36,506.9128,933.36,510.9128,929.36,514.9128,925.36,510.9128" style="stroke:#B38D22;stroke-width:1.0;"/><text fill="#000000" font-family="sans-serif" font-size="14" lengthAdjust="spacing" textLength="402" x="938.36" y="515.2595">std::map&lt;int, std::map&lt;enum pos, std::string&gt;&gt; sprites;</text><line style="stroke:#A80036;stroke-width:1.0;" x1="919.36" x2="1692.36" y1="522.5613" y2="522.5613"/><ellipse cx="929.36" cy="536.2097" fill="#84BE84" rx="3" ry="3" style="stroke:#038048;stroke-width:1.0;"/><text fill="#000000" font-family="sans-serif" font-size="14" lengthAdjust="spacing" textLength="434" x="938.36" y="539.5564">void init(const std::string &amp;conf_file); //Charge le fichier de conf</text><ellipse cx="929.36" cy="552.5066" fill="#84BE84" rx="3" ry="3" style="stroke:#038048;stroke-width:1.0;"/><text fill="#000000" font-family="sans-serif" font-size="14" lengthAdjust="spacing" textLength="650" x="938.36" y="555.8532">const std::string &amp;get_texture(int id, enum type type) const; //Recup de la texture d'un sprites</text><ellipse cx="929.36" cy="568.8034" fill="#84BE84" rx="3" ry="3" style="stroke:#038048;stroke-width:1.0;"/><text fill="#000000" font-family="sans-serif" font-size="14" lengthAdjust="spacing" textLength="395" x="938.36" y="572.1501">void set_elem(int id, int x, int y); // Set the element at map</text><ellipse cx="929.36" cy="585.1003" fill="#84BE84" rx="3" ry="3" style="stroke:#038048;stroke-width:1.0;"/><text fill="#000000" font-family="sans-serif" font-size="14" lengthAdjust="spacing" textLength="537" x="938.36" y="588.447">const std::vector&lt;std::vector&lt;int&gt;&gt; &amp;get_map() const; // Get the map of ids</text><ellipse cx="929.36" cy="601.3972" fill="#84BE84" rx="3" ry="3" style="stroke:#038048;stroke-width:1.0;"/><text fill="#000000" font-family="sans-serif" font-size="14" lengthAdjust="spacing" textLength="501" x="938.36" y="604.7439">const std::string &amp;get_rules() const; // Get the rules given in the conf file</text><ellipse cx="929.36" cy="617.6941" fill="#84BE84" rx="3" ry="3" style="stroke:#038048;stroke-width:1.0;"/><text fill="#000000" font-family="sans-serif" font-size="14" lengthAdjust="spacing" textLength="519" x="938.36" y="621.0407">const std::string &amp;get_names() const; // Get the name given in the conf file</text><ellipse cx="929.36" cy="633.9909" fill="#84BE84" rx="3" ry="3" style="stroke:#038048;stroke-width:1.0;"/><text fill="#000000" font-family="sans-serif" font-size="14" lengthAdjust="spacing" textLength="749" x="938.36" y="637.3376">const std::map&lt;std::string, std::size_t&gt; &amp;get_high_score() const; // Get the high-score given in the conf file</text></g><!--class IDisplayModule--><g id="elem_IDisplayModule"><rect codeLine="69" fill="#FEFECE" filter="url(#fh2kmlhksmugl)" height="145.7813" id="IDisplayModule" style="stroke:#A80036;stroke-width:1.0;" width="728" x="397.86" y="164"/><ellipse cx="706.11" cy="180" fill="#B4A7E5" rx="11" ry="11" style="stroke:#A80036;stroke-width:1.0;"/><path d="M702.0319,175.7656 L702.0319,173.6094 L709.4225,173.6094 L709.4225,175.7656 L706.9538,175.7656 L706.9538,183.8438 L709.4225,183.8438 L709.4225,186 L702.0319,186 L702.0319,183.8438 L704.5006,183.8438 L704.5006,175.7656 L702.0319,175.7656 Z " fill="#000000"/><text fill="#000000" font-family="sans-serif" font-size="14" font-style="italic" lengthAdjust="spacing" textLength="103" x="726.61" y="184.8467">IDisplayModule</text><line style="stroke:#A80036;stroke-width:1.0;" x1="398.86" x2="1124.86" y1="196" y2="196"/><polygon fill="none" points="408.86,204.6484,412.86,208.6484,408.86,212.6484,404.86,208.6484" style="stroke:#B38D22;stroke-width:1.0;"/><text fill="#000000" font-family="sans-serif" font-size="14" lengthAdjust="spacing" textLength="645" x="417.86" y="212.9951">std::shared_ptr&lt;core::IAssetLoader&gt; sprite; // Les sprites renvoy&#233;s par l'init de IGameModule</text><line style="stroke:#A80036;stroke-width:1.0;" x1="398.86" x2="1124.86" y1="220.2969" y2="220.2969"/><polygon fill="#4177AF" points="408.86,229.9453,404.86,235.9453,412.86,235.9453" style="stroke:#1963A0;stroke-width:1.0;"/><text fill="#000000" font-family="sans-serif" font-size="14" lengthAdjust="spacing" textLength="118" x="417.86" y="237.292">IDisplayModule();</text><ellipse cx="408.86" cy="250.2422" fill="#84BE84" rx="3" ry="3" style="stroke:#038048;stroke-width:1.0;"/><text fill="#000000" font-family="sans-serif" font-size="14" lengthAdjust="spacing" textLength="581" x="417.86" y="253.5889">void init(std::shared_ptr&lt;core::IAssetLoader&gt;); // Charge les sprites du init du game</text><ellipse cx="408.86" cy="266.5391" fill="#84BE84" rx="3" ry="3" style="stroke:#038048;stroke-width:1.0;"/><text fill="#000000" font-family="sans-serif" font-size="14" lengthAdjust="spacing" textLength="702" x="417.86" y="269.8857">std::map&lt;core::action, bool&gt; update(void); // Updates the screen and get the actions that happened</text><ellipse cx="408.86" cy="282.8359" fill="#84BE84" rx="3" ry="3" style="stroke:#038048;stroke-width:1.0;"/><text fill="#000000" font-family="sans-serif" font-size="14" lengthAdjust="spacing" textLength="451" x="417.86" y="286.1826">void set_name(const std::string &amp;name); // Set the window name</text><ellipse cx="408.86" cy="299.1328" fill="#84BE84" rx="3" ry="3" style="stroke:#038048;stroke-width:1.0;"/><text fill="#000000" font-family="sans-serif" font-size="14" lengthAdjust="spacing" textLength="366" x="417.86" y="302.4795">void print_text(const std::string &amp;text); // Prints a text</text></g><!--class GraphicalError--><g id="elem_GraphicalError"><rect codeLine="78" fill="#FEFECE" filter="url(#fh2kmlhksmugl)" height="96.8906" id="GraphicalError" style="stroke:#A80036;stroke-width:1.0;" width="286" x="76.86" y="188.45"/><ellipse cx="167.11" cy="204.45" fill="#ADD1B2" rx="11" ry="11" style="stroke:#A80036;stroke-width:1.0;"/><path d="M170.0788,210.0906 Q169.5006,210.3875 168.86,210.5281 Q168.2194,210.6844 167.5163,210.6844 Q165.0163,210.6844 163.6881,209.0438 Q162.3756,207.3875 162.3756,204.2625 Q162.3756,201.1375 163.6881,199.4813 Q165.0163,197.825 167.5163,197.825 Q168.2194,197.825 168.86,197.9813 Q169.5163,198.1375 170.0788,198.4344 L170.0788,201.1531 Q169.4538,200.575 168.86,200.3094 Q168.2663,200.0281 167.6413,200.0281 Q166.2975,200.0281 165.61,201.1063 Q164.9225,202.1688 164.9225,204.2625 Q164.9225,206.3563 165.61,207.4344 Q166.2975,208.4969 167.6413,208.4969 Q168.2663,208.4969 168.86,208.2313 Q169.4538,207.95 170.0788,207.3719 L170.0788,210.0906 Z " fill="#000000"/><text fill="#000000" font-family="sans-serif" font-size="14" lengthAdjust="spacing" textLength="97" x="187.61" y="209.2967">GraphicalError</text><line style="stroke:#A80036;stroke-width:1.0;" x1="77.86" x2="361.86" y1="220.45" y2="220.45"/><rect fill="none" height="6" style="stroke:#C82930;stroke-width:1.0;" width="6" x="84.86" y="231.0984"/><text fill="#000000" font-family="sans-serif" font-size="14" lengthAdjust="spacing" textLength="148" x="96.86" y="237.4451">const std::string _str;</text><line style="stroke:#A80036;stroke-width:1.0;" x1="77.86" x2="361.86" y1="244.7469" y2="244.7469"/><ellipse cx="87.86" cy="258.3953" fill="#84BE84" rx="3" ry="3" style="stroke:#038048;stroke-width:1.0;"/><text fill="#000000" font-family="sans-serif" font-size="14" lengthAdjust="spacing" textLength="260" x="96.86" y="261.742">GraphicalError(const std::string &amp;str);</text><ellipse cx="87.86" cy="274.6922" fill="#84BE84" rx="3" ry="3" style="stroke:#038048;stroke-width:1.0;"/><text fill="#000000" font-family="sans-serif" font-size="14" lengthAdjust="spacing" textLength="228" x="96.86" y="278.0389">const char *what() const throw();</text></g><!--class IGameModule--><g id="elem_IGameModule"><rect codeLine="88" fill="#FEFECE" filter="url(#fh2kmlhksmugl)" height="145.7813" id="IGameModule" style="stroke:#A80036;stroke-width:1.0;" width="735" x="1480.36" y="164"/><ellipse cx="1796.11" cy="180" fill="#B4A7E5" rx="11" ry="11" style="stroke:#A80036;stroke-width:1.0;"/><path d="M1792.0319,175.7656 L1792.0319,173.6094 L1799.4225,173.6094 L1799.4225,175.7656 L1796.9538,175.7656 L1796.9538,183.8438 L1799.4225,183.8438 L1799.4225,186 L1792.0319,186 L1792.0319,183.8438 L1794.5006,183.8438 L1794.5006,175.7656 L1792.0319,175.7656 Z " fill="#000000"/><text fill="#000000" font-family="sans-serif" font-size="14" font-style="italic" lengthAdjust="spacing" textLength="95" x="1816.61" y="184.8467">IGameModule</text><line style="stroke:#A80036;stroke-width:1.0;" x1="1481.36" x2="2214.36" y1="196" y2="196"/><polygon fill="none" points="1491.36,204.6484,1495.36,208.6484,1491.36,212.6484,1487.36,208.6484" style="stroke:#B38D22;stroke-width:1.0;"/><text fill="#000000" font-family="sans-serif" font-size="14" lengthAdjust="spacing" textLength="438" x="1500.36" y="212.9951">std::shared_ptr&lt;core::IAssetLoader&gt; sprite; // L'asset Manager</text><polygon fill="none" points="1491.36,220.9453,1495.36,224.9453,1491.36,228.9453,1487.36,224.9453" style="stroke:#B38D22;stroke-width:1.0;"/><text fill="#000000" font-family="sans-serif" font-size="14" lengthAdjust="spacing" textLength="230" x="1500.36" y="229.292">std::size_t _score; // score actuel</text><line style="stroke:#A80036;stroke-width:1.0;" x1="1481.36" x2="2214.36" y1="236.5938" y2="236.5938"/><polygon fill="#4177AF" points="1491.36,246.2422,1487.36,252.2422,1495.36,252.2422" style="stroke:#1963A0;stroke-width:1.0;"/><text fill="#000000" font-family="sans-serif" font-size="14" lengthAdjust="spacing" textLength="110" x="1500.36" y="253.5889">IGameModule();</text><ellipse cx="1491.36" cy="266.5391" fill="#84BE84" rx="3" ry="3" style="stroke:#038048;stroke-width:1.0;"/><text fill="#000000" font-family="sans-serif" font-size="14" lengthAdjust="spacing" textLength="709" x="1500.36" y="269.8857">std::shared_ptr&lt;core::IAssetLoader&gt; init(); // Charge les fichiers ou string de remplacement avec un id</text><ellipse cx="1491.36" cy="282.8359" fill="#84BE84" rx="3" ry="3" style="stroke:#038048;stroke-width:1.0;"/><text fill="#000000" font-family="sans-serif" font-size="14" lengthAdjust="spacing" textLength="559" x="1500.36" y="286.1826">void update (std::map&lt;action, bool&gt;); // Update le jeu avec les actions du joueur</text><ellipse cx="1491.36" cy="299.1328" fill="#84BE84" rx="3" ry="3" style="stroke:#038048;stroke-width:1.0;"/><text fill="#000000" font-family="sans-serif" font-size="14" lengthAdjust="spacing" textLength="502" x="1500.36" y="302.4795">const std::size_t &amp;get_score const (); // Donne le score du joueur actuel</text></g><!--class GameError--><g id="elem_GameError"><rect codeLine="97" fill="#FEFECE" filter="url(#fh2kmlhksmugl)" height="96.8906" id="GameError" style="stroke:#A80036;stroke-width:1.0;" width="263" x="1182.36" y="188.45"/><ellipse cx="1272.61" cy="204.45" fill="#ADD1B2" rx="11" ry="11" style="stroke:#A80036;stroke-width:1.0;"/><path d="M1275.5788,210.0906 Q1275.0006,210.3875 1274.36,210.5281 Q1273.7194,210.6844 1273.0163,210.6844 Q1270.5163,210.6844 1269.1881,209.0438 Q1267.8756,207.3875 1267.8756,204.2625 Q1267.8756,201.1375 1269.1881,199.4813 Q1270.5163,197.825 1273.0163,197.825 Q1273.7194,197.825 1274.36,197.9813 Q1275.0163,198.1375 1275.5788,198.4344 L1275.5788,201.1531 Q1274.9538,200.575 1274.36,200.3094 Q1273.7663,200.0281 1273.1413,200.0281 Q1271.7975,200.0281 1271.11,201.1063 Q1270.4225,202.1688 1270.4225,204.2625 Q1270.4225,206.3563 1271.11,207.4344 Q1271.7975,208.4969 1273.1413,208.4969 Q1273.7663,208.4969 1274.36,208.2313 Q1274.9538,207.95 1275.5788,207.3719 L1275.5788,210.0906 Z " fill="#000000"/><text fill="#000000" font-family="sans-serif" font-size="14" lengthAdjust="spacing" textLength="74" x="1293.11" y="209.2967">GameError</text><line style="stroke:#A80036;stroke-width:1.0;" x1="1183.36" x2="1444.36" y1="220.45" y2="220.45"/><rect fill="none" height="6" style="stroke:#C82930;stroke-width:1.0;" width="6" x="1190.36" y="231.0984"/><text fill="#000000" font-family="sans-serif" font-size="14" lengthAdjust="spacing" textLength="148" x="1202.36" y="237.4451">const std::string _str;</text><line style="stroke:#A80036;stroke-width:1.0;" x1="1183.36" x2="1444.36" y1="244.7469" y2="244.7469"/><ellipse cx="1193.36" cy="258.3953" fill="#84BE84" rx="3" ry="3" style="stroke:#038048;stroke-width:1.0;"/><text fill="#000000" font-family="sans-serif" font-size="14" lengthAdjust="spacing" textLength="237" x="1202.36" y="261.742">GameError(const std::string &amp;str);</text><ellipse cx="1193.36" cy="274.6922" fill="#84BE84" rx="3" ry="3" style="stroke:#038048;stroke-width:1.0;"/><text fill="#000000" font-family="sans-serif" font-size="14" lengthAdjust="spacing" textLength="228" x="1202.36" y="278.0389">const char *what() const throw();</text></g><!--class ConfFile--><g id="elem_ConfFile"><rect codeLine="54" fill="#FEFECE" filter="url(#fh2kmlhksmugl)" height="210.9688" id="ConfFile" style="stroke:#A80036;stroke-width:1.0;" width="377" x="1117.36" y="704.64"/><ellipse cx="1274.11" cy="720.64" fill="#B4A7E5" rx="11" ry="11" style="stroke:#A80036;stroke-width:1.0;"/><path d="M1270.0319,716.4056 L1270.0319,714.2494 L1277.4225,714.2494 L1277.4225,716.4056 L1274.9538,716.4056 L1274.9538,724.4838 L1277.4225,724.4838 L1277.4225,726.64 L1270.0319,726.64 L1270.0319,724.4838 L1272.5006,724.4838 L1272.5006,716.4056 L1270.0319,716.4056 Z " fill="#000000"/><text fill="#000000" font-family="sans-serif" font-size="14" font-style="italic" lengthAdjust="spacing" textLength="55" x="1294.61" y="725.4867">ConfFile</text><line style="stroke:#A80036;stroke-width:1.0;" x1="1118.36" x2="1493.36" y1="736.64" y2="736.64"/><text fill="#000000" font-family="sans-serif" font-size="14" lengthAdjust="spacing" textLength="82" x="1123.36" y="753.6351">// fichier csv</text><text fill="#000000" font-family="sans-serif" font-size="14" lengthAdjust="spacing" textLength="53" x="1123.36" y="769.932">// name</text><text fill="#000000" font-family="sans-serif" font-size="14" lengthAdjust="spacing" textLength="24" x="1123.36" y="786.2289">// --</text><text fill="#000000" font-family="sans-serif" font-size="14" lengthAdjust="spacing" textLength="57" x="1123.36" y="802.5257">// r&#232;gles</text><text fill="#000000" font-family="sans-serif" font-size="14" lengthAdjust="spacing" textLength="24" x="1123.36" y="818.8226">// --</text><text fill="#000000" font-family="sans-serif" font-size="14" lengthAdjust="spacing" textLength="123" x="1123.36" y="835.1195">// nom,high-score</text><text fill="#000000" font-family="sans-serif" font-size="14" lengthAdjust="spacing" textLength="24" x="1123.36" y="851.4164">// --</text><text fill="#000000" font-family="sans-serif" font-size="14" lengthAdjust="spacing" textLength="365" x="1123.36" y="867.7132">// id, texture_texte, texture_path_2d, texture_path_3d</text><text fill="#000000" font-family="sans-serif" font-size="14" lengthAdjust="spacing" textLength="24" x="1123.36" y="884.0101">// --</text><text fill="#000000" font-family="sans-serif" font-size="14" lengthAdjust="spacing" textLength="100" x="1123.36" y="900.307">// starting map</text><line style="stroke:#A80036;stroke-width:1.0;" x1="1118.36" x2="1493.36" y1="907.6088" y2="907.6088"/></g><!--reverse link exception to AssetError--><g id="link_exception_AssetError"><path d="M151.7368,71.0207 C115.0068,75.9007 85.34,86.62 60.86,121 C6,198.03 20.45,248.28 60.86,333.78 C87.62,390.39 141.88,435.18 189.7,465.91 " fill="none" id="exception-backto-AssetError" style="stroke:#A80036;stroke-width:1.0;"/><polygon fill="none" points="169.58,68.65,150.9466,65.0729,152.527,76.9684,169.58,68.65" style="stroke:#A80036;stroke-width:1.0;"/></g><!--reverse link exception to GraphicalError--><g id="link_exception_GraphicalError"><path d="M219.86,107.27 C219.86,132.62 219.86,155.88 219.86,188.18 " fill="none" id="exception-backto-GraphicalError" style="stroke:#A80036;stroke-width:1.0;"/><polygon fill="none" points="219.86,89.27,213.86,107.27,225.86,107.27,219.86,89.27" style="stroke:#A80036;stroke-width:1.0;"/></g><!--reverse link exception to GameError--><g id="link_exception_GameError"><path d="M288.0697,65.4581 C455.9397,64.5081 978.27,66.02 1141.86,121 C1184.58,135.36 1226.75,163.25 1258.64,187.96 " fill="none" id="exception-backto-GameError" style="stroke:#A80036;stroke-width:1.0;"/><polygon fill="none" points="270.07,65.56,288.1037,71.458,288.0358,59.4582,270.07,65.56" style="stroke:#A80036;stroke-width:1.0;"/></g><!--link IDisplayModule to ICoreModule--><g id="link_IDisplayModule_ICoreModule"><path codeLine="105" d="M761.86,310 C761.86,356.13 761.86,403.09 761.86,445.69 " fill="none" id="IDisplayModule-to-ICoreModule" style="stroke:#A80036;stroke-width:1.0;"/><polygon fill="#A80036" points="761.86,457.69,765.86,451.69,761.86,445.69,757.86,451.69,761.86,457.69" style="stroke:#A80036;stroke-width:1.0;"/></g><!--link IGameModule to ICoreModule--><g id="link_IGameModule_ICoreModule"><path codeLine="106" d="M1592.11,310.27 C1549.27,319.89 1505.04,328.3 1462.86,333.78 C1431.89,337.8 928.94,328.13 900.86,341.78 C851.15,365.95 819.4273,406.9651 795.8973,447.2951 " fill="none" id="IGameModule-to-ICoreModule" style="stroke:#A80036;stroke-width:1.0;"/><polygon fill="#A80036" points="789.85,457.66,796.3286,454.4933,795.8973,447.2951,789.4187,450.4618,789.85,457.66" style="stroke:#A80036;stroke-width:1.0;"/></g><!--link IAssetLoader to ConfFile--><g id="link_IAssetLoader_ConfFile"><path codeLine="107" d="M1305.86,644.83 C1305.86,664.67 1305.86,672.94 1305.86,692.16 " fill="none" id="IAssetLoader-to-ConfFile" style="stroke:#A80036;stroke-width:1.0;"/><polygon fill="#A80036" points="1305.86,704.16,1309.86,698.16,1305.86,692.16,1301.86,698.16,1305.86,704.16" style="stroke:#A80036;stroke-width:1.0;"/></g><!--link IDisplayModule to IAssetLoader--><g id="link_IDisplayModule_IAssetLoader"><path codeLine="108" d="M904.43,310.18 C949.37,332.96 1000.46,358.87 1050.77,384.37 " fill="none" id="IDisplayModule-IAssetLoader" style="stroke:#A80036;stroke-width:1.0;"/></g><!--link IGameModule to IAssetLoader--><g id="link_IGameModule_IAssetLoader"><path codeLine="109" d="M1705.81,310.18 C1661.04,332.96 1610.14,358.87 1560.01,384.37 " fill="none" id="IGameModule-IAssetLoader" style="stroke:#A80036;stroke-width:1.0;"/></g><!--SRC=[lLRDRjiu4BxxAGPOO6CdTWgqDoS8aBKTru3piwcDtPl0IBJChamA9EKaBTBdsNsEljWEVoIHiUlDNkg3HSqClndEV3EK-ejna4BHJeUJ3LKbIIaedS7Nbr2I2adXQwS3G7cr0P9g9ZWA07_BkxvzZc__k76h-UHguLRti-b7lxmSBMQttk1wShDqgz-NCwyVVRoycKwI-UmtV7qnhiY3qX9TmMo4xgz5LXNK-tpt3gu8qu22bSGe9T7KAdw1N99opL9IdCwcRZbd3t3inUgiDiDTQ87_gCD_9p-13M6yspkhOqWBeXHSAaNrH4eXWJvfoZDbSdHAdr9Q1fau2GoxgU1A6xFX48_1U0w_uhDN-t7gT4qa73-kYUxsl4YlfNZiUhi1xC8a-6pYi-MOMRTpGJ8gXqFzNDPfMap-N2mlvox1d-xkPuj9yduSlNuOrr2CQofNfjeXNdCqwybW-mI68V4cWR5SOiNKAmN-RKXv7fZrlOfzeOc-W3NBruaoZ8jsRccgXJmFrnZnnGLMh8mC3Jfg-ksR3RqKgXy6XpjLAPck0po1hM0PPe7fVRL3qIfPiOBspf1z8wnRJYtzMBfccARCD0bVHTMD07Ag4utigIJjOdZ0idwRK_ld6M3mxsbQbGQp8E0tGNPKyJhaC68iLK8BkcbGpVF9FPvjjF296bvHC6OKnKIRhEt6-iCSs-XnIpU84QOU5UKWLkXQ7JwzPSDU1Ak1d6qfnx2jo2GJJBuFOzeHjHVJQDuCUPYHrbDBoxtkZ7fWrJzs-jB1HclRR8IgA-Pd6aBLL4hLrWdC4TngC71F-VtllB3b3uHSRFgj-rXd-E09PDb7szUIw7NoFdib-93504eJgKsw3M6YEw4PjEvY2CR7cAco8C_HnAxx7nk7PacfvRa9TZWCPqtTaJQnSsI4Ppj8ohVY-Vi_2agSbyMHQLBJ7NP-EpVMoRVOTRUtszflYCBrJDFYRHXP1SvpPQyFZzqGo46vkx4F3q8K5r2L6LvDNUFVmIwjG5bkg5HIP0hX6UIUHcwtKMEFhabPKawprzrkQh1lHXbvtF2FZ6VYiIPI0uBduMuQxOCnSWTpP-mKk1aKNudJklflkHPZuvzoDSPKDRFWDKjRxlWulmMYsil_f-qHCHgu9fpaL4OWTfo0lzjiSzbvWJMlQ16owJ_SMIBliDIF3mMY0fyFR159DzWGgP_xEDG1Rn4MKSfn5BeDaICAXxGr5zvdMZaSuxEcAtR4Pr7HIkwPrkxKTeQwypgbFy1OS6vndQu1QhCIaWxhyoQ-rNO_Ysh1HsSy_0Q3O_lnV1fymtRQRyz3LauGVeePi_hIEEJo5dRsxlEvn-nV]--></g></svg>